<svg xmlns="http://www.w3.org/2000/svg" width="20" height="20" viewBox="0 0 20 20">
  <g id="我的收藏" transform="translate(-20 -212)">
    <rect id="矩形_6255" data-name="矩形 6255" width="20" height="20" transform="translate(20 212)" opacity="0"/>
    <path id="收藏" d="M74.6,95.032a1.9,1.9,0,0,1-.8-.19l-2.856-1.485a.65.65,0,0,0-.533,0l-2.856,1.485a1.715,1.715,0,0,1-2.323-.723,2.173,2.173,0,0,1-.152-1.1l.533-3.16a.563.563,0,0,0-.152-.495L63.18,87.112a1.735,1.735,0,0,1-.038-2.437,1.647,1.647,0,0,1,.99-.495l3.16-.457a.59.59,0,0,0,.419-.3l1.447-2.894a1.708,1.708,0,0,1,2.285-.762,1.64,1.64,0,0,1,.762.762l1.409,2.894a.59.59,0,0,0,.419.3l3.16.457a1.69,1.69,0,0,1,1.447,1.942,1.647,1.647,0,0,1-.495.99l-2.285,2.246a.5.5,0,0,0-.19.495l.533,3.16a1.691,1.691,0,0,1-.685,1.675A1.3,1.3,0,0,1,74.6,95.032Zm-3.922-2.894a1.9,1.9,0,0,1,.8.19l2.856,1.485a.557.557,0,0,0,.8-.609l-.533-3.2a1.617,1.617,0,0,1,.495-1.523l2.285-2.246a.552.552,0,0,0,0-.8.483.483,0,0,0-.343-.152l-3.16-.457a1.672,1.672,0,0,1-1.295-.952L71.176,81.02a.621.621,0,0,0-.762-.267.592.592,0,0,0-.228.3l-1.447,2.894a1.858,1.858,0,0,1-1.295.952l-3.16.457a.591.591,0,0,0-.495.647.684.684,0,0,0,.152.343L66.226,88.6a1.617,1.617,0,0,1,.495,1.523l-.533,3.16a.564.564,0,0,0,.457.647.538.538,0,0,0,.343-.038L69.843,92.4A1.539,1.539,0,0,1,70.681,92.138Z" transform="translate(-40.661 134.686)"/>
  </g>
</svg>
