<svg xmlns="http://www.w3.org/2000/svg" width="24" height="24" viewBox="0 0 24 24">
  <g id="创作" transform="translate(-29 -126)">
    <rect id="矩形_8130" data-name="矩形 8130" width="24" height="24" transform="translate(29 126)" opacity="0"/>
    <g id="编辑-01" transform="translate(-62.866 21.113)">
      <path id="路径_24229" data-name="路径 24229" d="M95.142,123.718a1.263,1.263,0,0,1-1.276-1.276v-.2l.51-3.418a1.36,1.36,0,0,1,.357-.714l10.612-10.561a1.33,1.33,0,0,1,1.786,0l2.857,2.908a1.233,1.233,0,0,1,0,1.786L99.428,122.85a1.36,1.36,0,0,1-.714.357l-3.418.51Zm.765-4.541-.459,2.959,2.959-.459,10.357-10.357-2.5-2.5Z" transform="translate(0 0)"/>
      <path id="路径_24230" data-name="路径 24230" d="M105.517,202.149l1.082-1.083,3.716,3.716-1.083,1.083Zm9.667,16.047H96.765a.765.765,0,1,1,0-1.531h18.418a.765.765,0,1,1,0,1.531Z" transform="translate(-2.082 -91.622)"/>
    </g>
  </g>
</svg>
