<svg xmlns="http://www.w3.org/2000/svg" width="24" height="24" viewBox="0 0 24 24">
  <g id="对话" transform="translate(-29 -126)">
    <rect id="矩形_8130" data-name="矩形 8130" width="24" height="24" transform="translate(29 126)" opacity="0"/>
    <g id="评论_消息-04" data-name="评论、消息-04" transform="translate(-53.67 49.566)">
      <path id="路径_24218" data-name="路径 24218" d="M91.417,97.933a1.246,1.246,0,0,1-.562-.14,1.163,1.163,0,0,1-.608-1.03,1.66,1.66,0,0,0-1.591-1.685h-.281a3.036,3.036,0,0,1-3.042-3.042V81.975a3.036,3.036,0,0,1,3.042-3.042h12.589a3.036,3.036,0,0,1,3.042,3.042V92.084a3.036,3.036,0,0,1-3.042,3.042H96.331a1.688,1.688,0,0,0-.936.281l-3.369,2.34A.863.863,0,0,1,91.417,97.933Zm-3.042-17.6a1.628,1.628,0,0,0-1.638,1.638V92.084a1.658,1.658,0,0,0,1.638,1.638h.234a2.994,2.994,0,0,1,3,2.667l3.042-2.106a2.941,2.941,0,0,1,1.732-.562h4.633a1.658,1.658,0,0,0,1.638-1.638V81.975a1.658,1.658,0,0,0-1.638-1.638Z"/>
      <path id="路径_24219" data-name="路径 24219" d="M284.887,319.271H275.9a.7.7,0,0,1,0-1.4h8.985a.7.7,0,1,1,0,1.4Zm0,3.978H275.9a.7.7,0,0,1,0-1.4h8.985a.7.7,0,1,1,0,1.4Z" transform="translate(-185.702 -233.692)"/>
    </g>
  </g>
</svg>
