<svg xmlns="http://www.w3.org/2000/svg" width="20" height="20" viewBox="0 0 20 20">
  <g id="分销推广" transform="translate(-20 -212)">
    <rect id="矩形_6255" data-name="矩形 6255" width="20" height="20" transform="translate(20 212)" opacity="0"/>
    <g id="分销中心" transform="translate(-16.4 146.256)">
      <path id="路径_24746" data-name="路径 24746" d="M46.4,73.1a2.414,2.414,0,1,1,2.414-2.414A2.414,2.414,0,0,1,46.4,73.1Zm0-3.712a1.333,1.333,0,1,0,1.333,1.333A1.33,1.33,0,0,0,46.4,69.384ZM40.49,83.222a2.092,2.092,0,0,1-2.09-2.09,2.123,2.123,0,0,1,2.09-2.126,2.108,2.108,0,0,1,0,4.216Zm0-3.135A1.007,1.007,0,0,0,39.481,81.1a1.009,1.009,0,0,0,2.018,0A1.007,1.007,0,0,0,40.49,80.086Zm5.91,3.135a2.092,2.092,0,0,1-2.09-2.09,2.123,2.123,0,0,1,2.09-2.126,2.108,2.108,0,0,1,0,4.216Zm0-3.135A1.007,1.007,0,0,0,45.391,81.1a1.009,1.009,0,1,0,2.018,0A1.007,1.007,0,0,0,46.4,80.086Zm5.91,3.135a2.09,2.09,0,1,1,2.09-2.09A2.092,2.092,0,0,1,52.31,83.222Zm0-3.135A1.007,1.007,0,0,0,51.3,81.1a1.009,1.009,0,1,0,2.018,0A1.007,1.007,0,0,0,52.31,80.086Z"/>
      <path id="路径_24747" data-name="路径 24747" d="M480.541,308.62a.554.554,0,0,1-.541-.541v-6.739a.541.541,0,1,1,1.081,0v6.739A.531.531,0,0,1,480.541,308.62Z" transform="translate(-434.141 -228.605)"/>
      <path id="路径_24748" data-name="路径 24748" d="M144.289,442.739a.508.508,0,0,1-.5-.4,5.642,5.642,0,0,0-10.7-.144.551.551,0,0,1-1.081-.216c0-.036,0-.072.036-.072a6.693,6.693,0,0,1,12.757.18.537.537,0,0,1-.4.649C144.4,442.7,144.361,442.739,144.289,442.739Z" transform="translate(-92.015 -362.832)"/>
    </g>
  </g>
</svg>
