<svg xmlns="http://www.w3.org/2000/svg" width="24" height="24" viewBox="0 0 24 24">
  <g id="绘画" transform="translate(-29 -126)">
    <rect id="矩形_8130" data-name="矩形 8130" width="24" height="24" transform="translate(29 126)" opacity="0"/>
    <g id="装修" transform="translate(-63.904 83.199)">
      <path id="路径_24741" data-name="路径 24741" d="M179.153,51.695H164.267v-4.84a2.046,2.046,0,0,1,2.055-2.055h10.731a2.046,2.046,0,0,1,2.055,2.055v4.84Zm-13.516-1.37h12.1v-3.47a.7.7,0,0,0-.685-.685H166.321a.7.7,0,0,0-.685.685Z" transform="translate(-66.805)"/>
      <path id="路径_24742" data-name="路径 24742" d="M104.9,64.8a2.845,2.845,0,0,1-2.831-2.831V59.64a1.618,1.618,0,0,0-1.6-1.6H98.968A2.962,2.962,0,0,1,96,55.074V53.339a2.962,2.962,0,0,1,2.968-2.968H110.84a2.962,2.962,0,0,1,2.968,2.968v1.735a2.962,2.962,0,0,1-2.968,2.968h-1.507a1.618,1.618,0,0,0-1.6,1.6v2.329A2.876,2.876,0,0,1,104.9,64.8ZM98.968,51.695a1.618,1.618,0,0,0-1.6,1.6v1.735a1.618,1.618,0,0,0,1.6,1.6h1.461a2.962,2.962,0,0,1,2.968,2.968v2.329a1.482,1.482,0,0,0,1.553,1.416,1.522,1.522,0,0,0,1.416-1.416V59.595a2.962,2.962,0,0,1,2.968-2.968h1.507a1.618,1.618,0,0,0,1.6-1.6V53.293a1.618,1.618,0,0,0-1.6-1.6H98.968Zm2.648-2.831a.7.7,0,0,1-.685-.685V45.485a.685.685,0,1,1,1.37,0v2.694A.672.672,0,0,1,101.616,48.864Zm3.288,0a.7.7,0,0,1-.685-.685V45.485a.685.685,0,1,1,1.37,0v2.694A.647.647,0,0,1,104.9,48.864Zm3.288,0a.7.7,0,0,1-.685-.685V45.485a.685.685,0,1,1,1.37,0v2.694A.672.672,0,0,1,108.192,48.864Z"/>
    </g>
  </g>
</svg>
