<svg xmlns="http://www.w3.org/2000/svg" width="20" height="20" viewBox="0 0 20 20">
  <g id="关注公众号" transform="translate(-20 -212)">
    <rect id="矩形_6255" data-name="矩形 6255" width="20" height="20" transform="translate(20 212)" opacity="0"/>
    <g id="关注" transform="translate(-42 150)">
      <path id="路径_24743" data-name="路径 24743" d="M64.571,517.9a.561.561,0,0,1-.571-.571,7.463,7.463,0,0,1,7.5-7.467,7.548,7.548,0,0,1,4.19,1.3.571.571,0,0,1-.5,1.029c-.038-.038-.076-.038-.114-.076a6.316,6.316,0,0,0-8.8,1.676,5.957,5.957,0,0,0-1.143,3.543A.586.586,0,0,1,64.571,517.9Z" transform="translate(0 -437.905)"/>
      <path id="路径_24744" data-name="路径 24744" d="M232.8,73.1a4.552,4.552,0,1,1,4.533-4.571A4.52,4.52,0,0,1,232.8,73.1Zm0-7.962a3.39,3.39,0,1,0,3.39,3.39A3.4,3.4,0,0,0,232.8,65.143Zm7.962,12.571H236.19a.571.571,0,0,1,0-1.143h4.571a.586.586,0,0,1,.571.571A.561.561,0,0,1,240.762,77.714Z" transform="translate(-161.333)"/>
      <path id="路径_24745" data-name="路径 24745" d="M768.571,645.714a.586.586,0,0,1-.571-.571v-4.571a.571.571,0,0,1,1.143,0v4.571A.561.561,0,0,1,768.571,645.714Z" transform="translate(-691.429 -565.714)"/>
    </g>
  </g>
</svg>
