<svg xmlns="http://www.w3.org/2000/svg" width="20" height="20" viewBox="0 0 20 20">
  <g id="购买记录" transform="translate(-20 -212)">
    <rect id="矩形_6255" data-name="矩形 6255" width="20" height="20" transform="translate(20 212)" opacity="0"/>
    <g id="充值" transform="translate(-24.897 169.199)">
      <path id="路径_24749" data-name="路径 24749" d="M54.9,60.69a7.945,7.945,0,1,1,7.963-7.927,8.188,8.188,0,0,1-.219,1.9.559.559,0,1,1-1.1-.219v-.037a6.849,6.849,0,1,0-8.292,5,7.3,7.3,0,0,0,3.324,0,.545.545,0,0,1,.256,1.059A8.5,8.5,0,0,1,54.9,60.69Z"/>
      <path id="路径_24750" data-name="路径 24750" d="M406.343,287.388a.766.766,0,0,1-.4-.146l-1.79-1.79a.543.543,0,0,1,.731-.8.036.036,0,0,1,.037.037l1.79,1.79a.53.53,0,0,1,0,.767A.424.424,0,0,1,406.343,287.388Z" transform="translate(-350.935 -235.61)"/>
      <path id="路径_24751" data-name="路径 24751" d="M522.166,287.388a.766.766,0,0,1-.4-.146.53.53,0,0,1,0-.767l1.79-1.79a.543.543,0,0,1,.8.731.036.036,0,0,1-.037.037l-1.79,1.79A.424.424,0,0,1,522.166,287.388Z" transform="translate(-466.539 -235.61)"/>
      <path id="路径_24752" data-name="路径 24752" d="M329.111,436.3h-6.429a.548.548,0,1,1,0-1.1h6.429a.548.548,0,1,1,0,1.1Zm0,2.009h-6.429a.548.548,0,0,1,0-1.1h6.429a.548.548,0,0,1,0,1.1Z" transform="translate(-270.488 -383.715)"/>
      <path id="路径_24753" data-name="路径 24753" d="M510.415,394.184a.562.562,0,0,1-.548-.548v-4.822a.548.548,0,0,1,1.1,0v4.822A.538.538,0,0,1,510.415,394.184Zm6.758,1.973h-4.42a.548.548,0,1,1,0-1.1h4.457a.562.562,0,0,1,.548.548A.6.6,0,0,1,517.173,396.157Z" transform="translate(-455.006 -337.585)"/>
      <path id="路径_24754" data-name="路径 24754" d="M774.948,662.583a.562.562,0,0,1-.548-.548v-4.42a.548.548,0,0,1,1.1,0v4.457A.509.509,0,0,1,774.948,662.583Z" transform="translate(-715.01 -601.783)"/>
    </g>
  </g>
</svg>
