<svg xmlns="http://www.w3.org/2000/svg" width="20" height="20" viewBox="0 0 20 20">
  <g id="任务奖励" transform="translate(-20 -212)">
    <rect id="矩形_6255" data-name="矩形 6255" width="20" height="20" transform="translate(20 212)" opacity="0"/>
    <g id="项目经历-04" transform="translate(-80.08 128.666)">
      <path id="路径_24222" data-name="路径 24222" d="M115.16,101.333H105a2.6,2.6,0,0,1-2.6-2.6v-10.8a2.6,2.6,0,0,1,2.6-2.6h10.16a2.6,2.6,0,0,1,2.6,2.6v10.8A2.6,2.6,0,0,1,115.16,101.333ZM105,86.533a1.417,1.417,0,0,0-1.4,1.4v10.8a1.417,1.417,0,0,0,1.4,1.4h10.16a1.417,1.417,0,0,0,1.4-1.4v-10.8a1.417,1.417,0,0,0-1.4-1.4Z"/>
      <path id="路径_24223" data-name="路径 24223" d="M292.867,309.933m-.6,0a.6.6,0,1,0,.6-.6A.6.6,0,0,0,292.267,309.933Z" transform="translate(-186.307 -219.8)"/>
      <path id="路径_24224" data-name="路径 24224" d="M410.853,310.533h-4.92a.6.6,0,1,1,0-1.2h4.92a.6.6,0,1,1,0,1.2Z" transform="translate(-297.253 -219.8)"/>
      <path id="路径_24225" data-name="路径 24225" d="M292.867,480.6m-.6,0a.6.6,0,1,0,.6-.6A.6.6,0,0,0,292.267,480.6Z" transform="translate(-186.307 -387.267)"/>
      <path id="路径_24226" data-name="路径 24226" d="M410.853,481.2h-4.92a.6.6,0,1,1,0-1.2h4.92a.6.6,0,1,1,0,1.2Z" transform="translate(-297.253 -387.267)"/>
      <path id="路径_24227" data-name="路径 24227" d="M292.867,651.267m-.6,0a.6.6,0,1,0,.6-.6A.6.6,0,0,0,292.267,651.267Z" transform="translate(-186.307 -554.733)"/>
      <path id="路径_24228" data-name="路径 24228" d="M410.853,651.867h-4.92a.6.6,0,1,1,0-1.2h4.92a.615.615,0,0,1,.6.6A.589.589,0,0,1,410.853,651.867Z" transform="translate(-297.253 -554.733)"/>
    </g>
  </g>
</svg>
