<svg xmlns="http://www.w3.org/2000/svg" width="24" height="24" viewBox="0 0 24 24">
  <g id="技能" transform="translate(-29 -126)">
    <rect id="矩形_8130" data-name="矩形 8130" width="24" height="24" transform="translate(29 126)" fill="#b7bfce" opacity="0"/>
    <path id="列表流" d="M92.333,94.583h-4.75a2.241,2.241,0,0,1-2.25-2.25v-4.75a2.273,2.273,0,0,1,2.25-2.25h4.75a2.241,2.241,0,0,1,2.25,2.25v4.75a2.209,2.209,0,0,1-2.25,2.25Zm-4.75-7.75a.736.736,0,0,0-.75.75v4.75a.769.769,0,0,0,.75.75h4.75a.769.769,0,0,0,.75-.75v-4.75a.709.709,0,0,0-.75-.75Zm4.75,18.5h-4.75a2.273,2.273,0,0,1-2.25-2.25v-4.75a2.241,2.241,0,0,1,2.25-2.25h4.75a2.241,2.241,0,0,1,2.25,2.25v4.75A2.241,2.241,0,0,1,92.333,105.333Zm-4.75-7.75a.769.769,0,0,0-.75.75v4.75a.736.736,0,0,0,.75.75h4.75a.769.769,0,0,0,.75-.75v-4.75a.769.769,0,0,0-.75-.75Zm17-9.3h-6.9a.75.75,0,0,1,0-1.5h6.9a.75.75,0,0,1,0,1.5Zm0,4.85h-6.9a.75.75,0,0,1,0-1.5h6.9a.75.75,0,0,1,0,1.5Zm0,5.9h-6.9a.75.75,0,0,1,0-1.5h6.9a.75.75,0,0,1,0,1.5Zm0,4.85h-6.9a.75.75,0,0,1,0-1.5h6.9a.769.769,0,0,1,.75.75A.736.736,0,0,1,104.583,103.883Z" transform="translate(-54.333 42.666)"/>
  </g>
</svg>
